<?xml version="1.0" encoding="utf-8"?>
<!-- Generator: Adobe Illustrator 19.0.0, SVG Export Plug-In . SVG Version: 6.00 Build 0)  -->
<svg version="1.1" id="Layer_1" xmlns="http://www.w3.org/2000/svg" xmlns:xlink="http://www.w3.org/1999/xlink" x="0px" y="0px"
	 viewBox="0 0 500 500" style="enable-background:new 0 0 500 500;" xml:space="preserve">
<style type="text/css">
	.st0{fill:#E41E27;}
	.st1{fill:#FFFFFF;}
</style>
<g id="XMLID_1_">
	<path id="XMLID_3_" class="st0" d="M68.2,304.2l40,0.1l8.6-78.6c0,0,3.6-22.3,35.6-17.4l3.6-38.1h-32.8c0,0-37.7,2.8-48.6,49.8
		C74.6,219.9,64.9,289.6,68.2,304.2z"/>
	<path id="XMLID_4_" class="st0" d="M141.9,336.2h40.5l4.9-46.2c0,0,4.9,13,37.7,13c32.8,0,53.1-30,58.7-46.2
		c5.7-16.2,19-58.3-21.9-83.4c0,0-50-27.7-82.2,11.3c0,0-21.5,22.7-25.9,61.6C149.2,285.2,141.9,336.2,141.9,336.2z"/>
	
		<ellipse id="XMLID_5_" transform="matrix(-0.8622 -0.5065 0.5065 -0.8622 294.6153 550.2549)" class="st1" cx="222.1" cy="235.1" rx="25.1" ry="32.1"/>
	<path id="XMLID_6_" class="st0" d="M391.8,219.1c0,0-21.5-38.5-48.3,0.8c-26.9,39.3,25.6,70.2,42.3,28.4h45
		c0,0-12.2,54.8-75.1,56.4c-62.9,1.6-63.2-64-59.4-72.4c0,0,12.4-68,77.8-68c65.3,0,58.3,55.4,58.3,55.4L391.8,219.1z"/>
</g>
</svg>
